<svg width="70" height="20" viewBox="0 0 70 20" fill="none" xmlns="http://www.w3.org/2000/svg">
<g clip-path="url(#clip0_75_412)">
<rect width="70" height="20" rx="10" fill="#F8FAFC"/>
<path d="M25.25 16.5C24.3472 16.5 23.5802 16.1844 22.949 15.5532C22.3178 14.9219 22.0014 14.1542 22 13.25V11.0833H25.25V13.25H28.5V3.5H31.75V13.25C31.75 14.1528 31.4344 14.9205 30.8032 15.5532C30.1719 16.1858 29.4042 16.5014 28.5 16.5H25.25ZM37.1667 16.5C36.5528 16.5 36.0386 16.292 35.624 15.876C35.2094 15.46 35.0014 14.9458 35 14.3333V12.1667H38.25V13.25H42.5833V11.0833H37.1667C36.5528 11.0833 36.0386 10.8753 35.624 10.4593C35.2094 10.0433 35.0014 9.52911 35 8.91667V5.66667C35 5.05278 35.208 4.53856 35.624 4.124C36.04 3.70944 36.5542 3.50144 37.1667 3.5H43.6667C44.2806 3.5 44.7955 3.708 45.2115 4.124C45.6275 4.54 45.8348 5.05422 45.8333 5.66667V7.83333H42.5833V6.75H38.25V8.91667H43.6667C44.2806 8.91667 44.7955 9.12467 45.2115 9.54067C45.6275 9.95667 45.8348 10.4709 45.8333 11.0833V14.3333C45.8333 14.9472 45.6253 15.4622 45.2093 15.8782C44.7933 16.2942 44.2791 16.5014 43.6667 16.5H37.1667Z" fill="black"/>
</g>
<defs>
<clipPath id="clip0_75_412">
<rect width="70" height="20" rx="10" fill="white"/>
</clipPath>
</defs>
</svg>
