<svg width="70" height="20" viewBox="0 0 70 20" fill="none" xmlns="http://www.w3.org/2000/svg">
<rect width="70" height="20" rx="10" fill="#F8FAFC"/>
<g clip-path="url(#clip0_79_470)">
<path d="M39.9588 8.47137H37.5181V8.7272C38.2815 8.7272 38.4043 8.88886 38.4043 9.84553V11.5702C38.4043 12.5267 38.2816 12.7019 37.5181 12.7019C36.932 12.6211 36.5364 12.3111 35.9911 11.7183L35.3639 11.0447C36.2091 10.8964 36.6591 10.3711 36.6591 9.77816C36.6591 9.03736 36.0185 8.47149 34.8185 8.47149H32.4189V8.7272C33.1822 8.7272 33.305 8.88886 33.305 9.84553V11.5702C33.305 12.5267 33.1822 12.7019 32.4189 12.7019V12.9578H35.132V12.7018C34.3686 12.7018 34.2459 12.5267 34.2459 11.5702V11.0852H34.4776L35.991 12.9578H39.9588C41.9084 12.9578 42.7537 11.934 42.7537 10.7078C42.7537 9.48177 41.9085 8.47137 39.9588 8.47137ZM34.2461 10.6673V8.87558H34.8049C35.4184 8.87558 35.6912 9.29319 35.6912 9.77828C35.6912 10.2499 35.4184 10.6673 34.8049 10.6673H34.2461ZM39.9997 12.5402H39.9042C39.4135 12.5402 39.3453 12.419 39.3453 11.7992V8.87558H39.9997C41.4177 8.87558 41.6766 9.89937 41.6766 10.6944C41.6766 11.5162 41.4175 12.5402 39.9997 12.5402ZM24.8248 11.1661L25.7656 8.41741C26.0384 7.62252 25.9156 7.39361 25.043 7.39361V7.12402H27.6062V7.39361C26.7473 7.39361 26.5429 7.5956 26.202 8.57919L24.6476 13.1869H24.4704L23.0795 8.96963L21.6615 13.1869H21.4842L19.971 8.57919C19.6438 7.5956 19.4256 7.39361 18.6348 7.39361V7.12402H21.6616V7.39361C20.8572 7.39361 20.6389 7.58219 20.9254 8.41741L21.8388 11.166L23.2159 7.12402H23.475L24.8248 11.1661ZM29.4603 13.1329C27.9606 13.1329 26.7335 12.0416 26.7335 10.7077C26.7335 9.38748 27.9607 8.29595 29.4603 8.29595C30.9602 8.29595 32.1871 9.38748 32.1871 10.7077C32.1871 12.0416 30.9602 13.1329 29.4603 13.1329ZM29.4603 8.71392C28.206 8.71392 27.7697 9.83201 27.7697 10.7078C27.7697 11.5972 28.206 12.7019 29.4603 12.7019C30.7284 12.7019 31.1647 11.5972 31.1647 10.7078C31.1647 9.83201 30.7284 8.71392 29.4603 8.71392Z" fill="#00749A"/>
<path d="M46.1213 12.6885V12.9579H42.999V12.6885C43.9126 12.6885 44.0762 12.4595 44.0762 11.112V8.95658C44.0762 7.60899 43.9126 7.39361 42.999 7.39361V7.12402H45.8213C47.2255 7.12402 48.0029 7.83814 48.0029 8.7948C48.0029 9.72455 47.2255 10.4519 45.8213 10.4519H45.0441V11.1119C45.0441 12.4595 45.2076 12.6885 46.1213 12.6885ZM45.8213 7.60899H45.0441V9.95345H45.8213C46.5849 9.95345 46.9394 9.42803 46.9394 8.7948C46.9394 8.14817 46.5849 7.60899 45.8213 7.60899ZM57.3695 11.6915L57.3013 11.934C57.1787 12.3786 57.0285 12.5403 56.0605 12.5403H55.8695C55.1608 12.5403 55.038 12.3786 55.038 11.4221V10.8023C56.1016 10.8023 56.1834 10.8966 56.1834 11.5973H56.4424V9.58957H56.1833C56.1833 10.2902 56.1016 10.3845 55.038 10.3845V8.87557H55.7877C56.7559 8.87557 56.9057 9.03735 57.0285 9.48188L57.0968 9.73771H57.3148L57.2196 8.47137H53.2109V8.7272C53.9743 8.7272 54.0972 8.88885 54.0972 9.84552V11.5702C54.0972 12.4452 53.9929 12.6656 53.391 12.6971C52.8188 12.6107 52.4261 12.3023 51.8886 11.7183L51.2613 11.0447C52.1068 10.8964 52.5568 10.3711 52.5568 9.77815C52.5568 9.03735 51.916 8.47149 50.7162 8.47149H48.3166V8.7272C49.0799 8.7272 49.2027 8.88885 49.2027 9.84552V11.5702C49.2027 12.5267 49.0801 12.7019 48.3166 12.7019V12.9578H51.0298V12.7018C50.2664 12.7018 50.1436 12.5267 50.1436 11.5702V11.0853H50.3754L51.8887 12.9579H57.4924L57.5743 11.6916L57.3695 11.6915ZM50.1435 10.6676V8.87569H50.7023C51.3159 8.87569 51.5888 9.2933 51.5888 9.77839C51.5888 10.25 51.3159 10.6675 50.7023 10.6675L50.1435 10.6676ZM60.1372 13.1331C59.5918 13.1331 59.1146 12.8503 58.9101 12.675C58.8419 12.7424 58.7192 12.9445 58.6921 13.1331H58.433V11.2739H58.7057C58.8148 12.1629 59.4419 12.6885 60.2463 12.6885C60.6827 12.6885 61.0371 12.4461 61.0371 12.0418C61.0371 11.6916 60.7236 11.422 60.1646 11.1662L59.3874 10.8024C58.8419 10.5462 58.433 10.1016 58.433 9.50892C58.433 8.86229 59.0466 8.30995 59.8919 8.30995C60.3419 8.30995 60.7235 8.47161 60.9555 8.66019C61.0235 8.60634 61.0917 8.45797 61.1326 8.29619H61.3918V9.88632H61.1054C61.0097 9.25297 60.6554 8.72756 59.9328 8.72756C59.5512 8.72756 59.1965 8.94318 59.1965 9.28014C59.1965 9.63038 59.4829 9.81884 60.1374 10.1154L60.8871 10.4791C61.5417 10.7889 61.8006 11.2876 61.8006 11.6917C61.8006 12.5405 61.0507 13.1331 60.1372 13.1331ZM64.3365 13.1331C63.7911 13.1331 63.3138 12.8503 63.1095 12.675C63.0412 12.7424 62.9186 12.9445 62.8915 13.1331H62.6324V11.2739H62.905C63.014 12.1629 63.6412 12.6885 64.4456 12.6885C64.8819 12.6885 65.2365 12.4461 65.2365 12.0418C65.2365 11.6916 64.9229 11.422 64.3638 11.1662L63.5866 10.8024C63.0412 10.5462 62.6321 10.1016 62.6321 9.50892C62.6321 8.86229 63.2457 8.30995 64.0911 8.30995C64.5411 8.30995 64.9228 8.47161 65.1546 8.66019C65.2227 8.60634 65.2909 8.45797 65.3317 8.29619H65.5908V9.88632H65.3046C65.209 9.25297 64.8546 8.72756 64.1321 8.72756C63.7503 8.72756 63.3956 8.94318 63.3956 9.28014C63.3956 9.63038 63.682 9.81884 64.3365 10.1154L65.0863 10.4791C65.7409 10.7889 65.9998 11.2876 65.9998 11.6917C65.9998 12.5405 65.2499 13.1331 64.3365 13.1331ZM4.99975 9.9501C4.99975 12.3102 6.38785 14.3497 8.40055 15.3163L5.52215 7.52356C5.17696 8.28705 4.99893 9.11388 4.99975 9.9501ZM15.1072 9.6494C15.1072 8.91255 14.8393 8.4022 14.6095 8.00494C14.3036 7.51386 14.017 7.09793 14.017 6.60685C14.017 6.0587 14.4377 5.54848 15.0302 5.54848C15.0569 5.54848 15.0823 5.55183 15.1084 5.55326C14.0349 4.5814 12.6047 3.98814 11.0337 3.98814C8.92573 3.98814 7.07118 5.0568 5.99223 6.67566C6.13391 6.67973 6.26724 6.68272 6.38058 6.68272C7.01172 6.68272 7.98871 6.60697 7.98871 6.60697C8.31396 6.58807 8.35223 7.06012 8.02746 7.09817C8.02746 7.09817 7.7005 7.13622 7.33674 7.15501L9.53411 13.6133L10.8545 9.70002L9.91446 7.15489C9.58957 7.13598 9.28175 7.09793 9.28175 7.09793C8.95649 7.07915 8.99475 6.58783 9.31977 6.60685C9.31977 6.60685 10.3164 6.68248 10.9092 6.68248C11.5401 6.68248 12.5174 6.60685 12.5174 6.60685C12.8427 6.58783 12.881 7.05988 12.556 7.09793C12.556 7.09793 12.2284 7.13598 11.8654 7.15477L14.0459 13.5641L14.6478 11.5766C14.9086 10.7521 15.1072 10.1599 15.1072 9.6494ZM11.1396 10.4717L9.32921 15.67C9.8827 15.8311 10.4567 15.9129 11.0337 15.9129C11.7162 15.9131 12.3937 15.7988 13.0375 15.5749C13.0208 15.5488 13.0064 15.5213 12.9946 15.4928L11.1396 10.4717ZM16.3283 7.08956C16.3542 7.27945 16.369 7.48323 16.369 7.70268C16.369 8.30767 16.2546 8.98781 15.9101 9.83822L14.067 15.104C15.8609 14.0703 17.0675 12.1499 17.0675 9.95034C17.0691 8.95042 16.8148 7.96632 16.3283 7.08956ZM11.0337 3C7.15546 3 4 6.11781 4 9.9501C4 13.783 7.15546 16.9007 11.0337 16.9007C14.912 16.9007 18.0678 13.783 18.0678 9.9501C18.0678 6.11781 14.912 3 11.0337 3ZM11.0337 16.582C7.33335 16.582 4.32247 13.607 4.32247 9.9501C4.32247 6.29359 7.33323 3.31865 11.0337 3.31865C14.7342 3.31865 17.7447 6.29359 17.7447 9.9501C17.7447 13.607 14.7341 16.582 11.0337 16.582Z" fill="#464342"/>
</g>
<defs>
<clipPath id="clip0_79_470">
<rect width="62" height="14" fill="white" transform="translate(4 3)"/>
</clipPath>
</defs>
</svg>
