<svg width="152" height="43" viewBox="0 0 152 43" fill="none" xmlns="http://www.w3.org/2000/svg">
<rect width="152" height="43" rx="10" fill="#F8FAFC"/>
<g clip-path="url(#clip0_87_812)">
<path d="M86.4571 18.1154H81.064V18.6819C82.7508 18.6819 83.0222 19.0398 83.0222 21.1581V24.977C83.0222 27.095 82.7511 27.4829 81.064 27.4829C79.769 27.3041 78.8948 26.6176 77.6899 25.305L76.3038 23.8135C78.1715 23.485 79.1658 22.3218 79.1658 21.009C79.1658 19.3686 77.7503 18.1156 75.0986 18.1156H69.7963V18.6819C71.4831 18.6819 71.7544 19.0398 71.7544 21.1581V24.977C71.7544 27.095 71.4831 27.4829 69.7963 27.4829V28.0497H75.7914V27.4827C74.1046 27.4827 73.8335 27.095 73.8335 24.977V23.9031H74.3454L77.6896 28.0497H86.4571C90.7651 28.0497 92.633 25.7827 92.633 23.0674C92.633 20.3527 90.7653 18.1154 86.4571 18.1154ZM73.8338 22.9779V19.0104H75.0687C76.4242 19.0104 77.0271 19.9351 77.0271 21.0092C77.0271 22.0534 76.4242 22.9779 75.0687 22.9779H73.8338ZM86.5475 27.125H86.3364C85.2522 27.125 85.1015 26.8566 85.1015 25.4841V19.0104H86.5475C89.6808 19.0104 90.2529 21.2774 90.2529 23.0378C90.2529 24.8575 89.6803 27.125 86.5475 27.125ZM53.016 24.0822L55.0948 17.9959C55.6976 16.2358 55.4263 15.7289 53.4981 15.7289V15.132H59.162V15.7289C57.264 15.7289 56.8123 16.1762 56.0591 18.3541L52.6242 28.5568H52.2327L49.1593 19.2187L46.026 28.5568H45.6343L42.2906 18.3541C41.5676 16.1762 41.0854 15.7289 39.3379 15.7289V15.132H46.0263V15.7289C44.2488 15.7289 43.7663 16.1465 44.3994 17.9959L46.4177 24.082L49.4606 15.132H50.0333L53.016 24.0822ZM63.2588 28.4373C59.9449 28.4373 57.2335 26.0209 57.2335 23.0672C57.2335 20.1439 59.9452 17.7269 63.2588 17.7269C66.5731 17.7269 69.2842 20.1439 69.2842 23.0672C69.2842 26.0209 66.5731 28.4373 63.2588 28.4373ZM63.2588 18.6524C60.4873 18.6524 59.5232 21.1282 59.5232 23.0674C59.5232 25.0369 60.4873 27.4829 63.2588 27.4829C66.0609 27.4829 67.025 25.0369 67.025 23.0674C67.025 21.1282 66.0609 18.6524 63.2588 18.6524Z" fill="#00749A"/>
<path d="M100.074 27.4531V28.0497H93.1751V27.4531C95.194 27.4531 95.5555 26.9459 95.5555 23.9622V19.1896C95.5555 16.2056 95.194 15.7287 93.1751 15.7287V15.1318H99.4116C102.514 15.1318 104.232 16.713 104.232 18.8314C104.232 20.8901 102.514 22.5007 99.4116 22.5007H97.6943V23.962C97.6943 26.9459 98.0555 27.4531 100.074 27.4531ZM99.4116 16.2056H97.6943V21.3969H99.4116C101.099 21.3969 101.882 20.2335 101.882 18.8314C101.882 17.3995 101.099 16.2056 99.4116 16.2056ZM124.929 25.2454L124.779 25.7825C124.508 26.7668 124.176 27.125 122.037 27.125H121.615C120.049 27.125 119.777 26.7668 119.777 24.649V23.2765C122.128 23.2765 122.309 23.4853 122.309 25.0369H122.881V20.5912H122.308C122.308 22.1425 122.128 22.3513 119.777 22.3513V19.0102H121.434C123.574 19.0102 123.905 19.3684 124.176 20.3527L124.327 20.9192H124.808L124.598 18.1152H115.74V18.6816C117.427 18.6816 117.699 19.0396 117.699 21.1579V24.9768C117.699 26.9144 117.468 27.4025 116.138 27.4721C114.874 27.2808 114.006 26.598 112.818 25.3048L111.432 23.8133C113.3 23.4848 114.295 22.3216 114.295 21.0088C114.295 19.3684 112.879 18.1154 110.228 18.1154H104.925V18.6816C106.612 18.6816 106.883 19.0396 106.883 21.1579V24.9768C106.883 27.0948 106.612 27.4827 104.925 27.4827V28.0495H110.921V27.4825C109.234 27.4825 108.963 27.0948 108.963 24.9768V23.9032H109.475L112.819 28.0497H125.201L125.382 25.2457L124.929 25.2454ZM108.962 22.9782V19.0105H110.197C111.553 19.0105 112.156 19.9352 112.156 21.0093C112.156 22.0535 111.553 22.9779 110.197 22.9779L108.962 22.9782ZM131.045 28.4376C129.84 28.4376 128.786 27.8113 128.334 27.4231C128.183 27.5726 127.912 28.0201 127.852 28.4376H127.279V24.3207H127.882C128.123 26.2894 129.509 27.4531 131.286 27.4531C132.25 27.4531 133.034 26.9163 133.034 26.0212C133.034 25.2457 132.341 24.6488 131.106 24.0823L129.388 23.2768C128.183 22.7095 127.279 21.7249 127.279 20.4126C127.279 18.9808 128.635 17.7577 130.503 17.7577C131.497 17.7577 132.341 18.1157 132.853 18.5333C133.004 18.414 133.154 18.0855 133.245 17.7273H133.817V21.2483H133.184C132.973 19.8459 132.19 18.6824 130.594 18.6824C129.75 18.6824 128.966 19.1599 128.966 19.906C128.966 20.6815 129.599 21.0989 131.045 21.7554L132.702 22.5609C134.149 23.2469 134.721 24.3512 134.721 25.246C134.721 27.1253 133.064 28.4376 131.045 28.4376ZM140.324 28.4376C139.119 28.4376 138.064 27.8113 137.613 27.4231C137.462 27.5726 137.191 28.0201 137.131 28.4376H136.559V24.3207H137.161C137.402 26.2894 138.788 27.4531 140.565 27.4531C141.529 27.4531 142.313 26.9163 142.313 26.0212C142.313 25.2457 141.62 24.6488 140.384 24.0823L138.667 23.2768C137.462 22.7095 136.558 21.7249 136.558 20.4126C136.558 18.9808 137.914 17.7577 139.782 17.7577C140.776 17.7577 141.62 18.1157 142.132 18.5333C142.282 18.414 142.433 18.0855 142.523 17.7273H143.096V21.2483H142.463C142.252 19.8459 141.469 18.6824 139.873 18.6824C139.029 18.6824 138.245 19.1599 138.245 19.906C138.245 20.6815 138.878 21.0989 140.324 21.7554L141.981 22.5609C143.427 23.2469 143.999 24.3512 143.999 25.246C143.999 27.1253 142.343 28.4376 140.324 28.4376ZM9.20912 21.3895C9.20912 26.6155 12.2764 31.1315 16.7238 33.2718L10.3635 16.0164C9.60069 17.707 9.20732 19.5379 9.20912 21.3895ZM31.5433 20.7237C31.5433 19.0921 30.9515 17.962 30.4436 17.0824C29.7677 15.995 29.1343 15.074 29.1343 13.9866C29.1343 12.7728 30.0639 11.6431 31.3732 11.6431C31.4323 11.6431 31.4882 11.6505 31.546 11.6537C29.1739 9.50167 26.0136 8.18802 22.5423 8.18802C17.8843 8.18802 13.7863 10.5544 11.4022 14.139C11.7153 14.148 12.0099 14.1546 12.2603 14.1546C13.6549 14.1546 15.8138 13.9869 15.8138 13.9869C16.5325 13.945 16.617 14.9903 15.8994 15.0745C15.8994 15.0745 15.1769 15.1588 14.3731 15.2004L19.2286 29.5009L22.1463 20.8358L20.0691 15.2001C19.3511 15.1582 18.671 15.074 18.671 15.074C17.9522 15.0324 18.0368 13.9445 18.755 13.9866C18.755 13.9866 20.9571 14.1541 22.2672 14.1541C23.6613 14.1541 25.8206 13.9866 25.8206 13.9866C26.5396 13.9445 26.6242 14.9897 25.906 15.074C25.906 15.074 25.1822 15.1582 24.38 15.1998L29.1983 29.392L30.5281 24.9911C31.1045 23.1653 31.5433 21.854 31.5433 20.7237ZM22.7761 22.5445L18.7758 34.055C19.9989 34.4118 21.2673 34.5929 22.5423 34.5929C24.0503 34.5932 25.5474 34.3401 26.9699 33.8444C26.933 33.7866 26.9013 33.7258 26.8752 33.6626L22.7761 22.5445ZM34.2416 15.0554C34.2989 15.4759 34.3315 15.9272 34.3315 16.4131C34.3315 17.7527 34.0786 19.2587 33.3174 21.1418L29.2448 32.8018C33.2087 30.5128 35.8749 26.2605 35.8749 21.39C35.8785 19.1759 35.3167 16.9969 34.2416 15.0554ZM22.5423 6C13.9726 6 7 12.9037 7 21.3895C7 29.8766 13.9726 36.7801 22.5423 36.7801C31.112 36.7801 38.0854 29.8766 38.0854 21.3895C38.0854 12.9037 31.112 6 22.5423 6ZM22.5423 36.0745C14.3656 36.0745 7.71256 29.4869 7.71256 21.3895C7.71256 13.2929 14.3654 6.70558 22.5423 6.70558C30.7192 6.70558 37.3715 13.2929 37.3715 21.3895C37.3715 29.4869 30.7189 36.0745 22.5423 36.0745Z" fill="#464342"/>
</g>
<defs>
<clipPath id="clip0_87_812">
<rect width="137" height="31" fill="white" transform="translate(7 6)"/>
</clipPath>
</defs>
</svg>
