<svg width="38" height="43" viewBox="0 0 38 43" fill="none" xmlns="http://www.w3.org/2000/svg">
<g clip-path="url(#clip0_20_77)">
<path d="M16.7 10.525C17.54 10.525 18.215 9.85 18.215 9.01C18.215 8.17 17.54 7.495 16.7 7.495C15.86 7.495 15.185 8.17 15.185 9.01C15.185 9.85 15.86 10.525 16.7 10.525Z" fill="#F8FAFC"/>
<path fill-rule="evenodd" clip-rule="evenodd" d="M19.745 13.825C19.745 12.205 18.38 11.035 16.7 11.035C15.02 11.035 13.655 12.205 13.655 13.825V14.59C13.655 14.725 13.715 14.86 13.805 14.95C13.895 15.04 14.03 15.1 14.165 15.1H19.235C19.37 15.1 19.505 15.04 19.595 14.95C19.685 14.86 19.745 14.725 19.745 14.59V13.825ZM13.625 18.25C13.625 17.9517 13.7435 17.6655 13.9545 17.4545C14.1655 17.2436 14.4516 17.125 14.75 17.125H25.25C25.5484 17.125 25.8345 17.2436 26.0455 17.4545C26.2565 17.6655 26.375 17.9517 26.375 18.25C26.375 18.5484 26.2565 18.8345 26.0455 19.0455C25.8345 19.2565 25.5484 19.375 25.25 19.375H14.75C14.4516 19.375 14.1655 19.2565 13.9545 19.0455C13.7435 18.8345 13.625 18.5484 13.625 18.25ZM13.625 22.75C13.625 22.4517 13.7435 22.1655 13.9545 21.9545C14.1655 21.7436 14.4516 21.625 14.75 21.625H25.25C25.5484 21.625 25.8345 21.7436 26.0455 21.9545C26.2565 22.1655 26.375 22.4517 26.375 22.75C26.375 23.0484 26.2565 23.3345 26.0455 23.5455C25.8345 23.7565 25.5484 23.875 25.25 23.875H14.75C14.4516 23.875 14.1655 23.7565 13.9545 23.5455C13.7435 23.3345 13.625 23.0484 13.625 22.75Z" fill="#F8FAFC"/>
<path fill-rule="evenodd" clip-rule="evenodd" d="M8.75 4.75C8.75 3.097 10.097 1.75 11.75 1.75H21.785C22.628 1.75 23.423 2.107 23.9825 2.6965L23.9915 2.707L30.4595 9.76C30.998 10.3345 31.25 11.086 31.25 11.8V27.25C31.25 28.903 29.903 30.25 28.25 30.25H11.75C10.097 30.25 8.75 28.903 8.75 27.25V4.75ZM21.7835 4.75H11.75V27.25H28.25V11.788L21.806 4.7605L21.8015 4.759L21.7835 4.75Z" fill="#F8FAFC"/>
<path fill-rule="evenodd" clip-rule="evenodd" d="M21.785 1.75C22.1828 1.75 22.5644 1.90804 22.8457 2.18934C23.127 2.47064 23.285 2.85218 23.285 3.25V10.3H29.75C29.947 10.3 30.142 10.3388 30.324 10.4142C30.506 10.4896 30.6714 10.6001 30.8107 10.7393C30.9499 10.8786 31.0604 11.044 31.1358 11.226C31.2112 11.408 31.25 11.603 31.25 11.8C31.25 11.997 31.2112 12.192 31.1358 12.374C31.0604 12.556 30.9499 12.7214 30.8107 12.8607C30.6714 13 30.506 13.1104 30.324 13.1858C30.142 13.2612 29.947 13.3 29.75 13.3H21.785C21.3872 13.3 21.0056 13.142 20.7243 12.8607C20.443 12.5794 20.285 12.1978 20.285 11.8V3.25C20.285 2.85218 20.443 2.47064 20.7243 2.18934C21.0056 1.90804 21.3872 1.75 21.785 1.75Z" fill="#F8FAFC"/>
<path d="M17.3955 36.4912C17.0016 36.4912 16.6468 36.5596 16.3311 36.6963C16.0186 36.8298 15.7516 37.0251 15.5303 37.2822C15.3122 37.5361 15.1445 37.8438 15.0273 38.2051C14.9102 38.5664 14.8516 38.9733 14.8516 39.4258C14.8516 40.0247 14.9443 40.5456 15.1299 40.9883C15.3187 41.4277 15.5986 41.7679 15.9697 42.0088C16.3441 42.2497 16.8112 42.3701 17.3711 42.3701C17.6901 42.3701 17.9896 42.3441 18.2695 42.292C18.5527 42.2367 18.8278 42.1683 19.0947 42.0869V42.8096C18.8343 42.9072 18.5609 42.9788 18.2744 43.0244C17.988 43.0732 17.6478 43.0977 17.2539 43.0977C16.528 43.0977 15.9209 42.9479 15.4326 42.6484C14.9476 42.3457 14.583 41.9193 14.3389 41.3691C14.098 40.819 13.9775 40.1696 13.9775 39.4209C13.9775 38.8805 14.0524 38.3874 14.2021 37.9414C14.3551 37.4922 14.5765 37.1048 14.8662 36.7793C15.1592 36.4538 15.5173 36.2031 15.9404 36.0273C16.3669 35.8483 16.8551 35.7588 17.4053 35.7588C17.7666 35.7588 18.1149 35.7946 18.4502 35.8662C18.7855 35.9378 19.0882 36.0404 19.3584 36.1738L19.0264 36.877C18.7985 36.7728 18.5479 36.6833 18.2744 36.6084C18.0042 36.5303 17.7113 36.4912 17.3955 36.4912ZM25.6279 35.8613L23.0645 43H22.2295L19.666 35.8613H20.5352L22.2051 40.5635C22.2734 40.7523 22.3337 40.9329 22.3857 41.1055C22.4411 41.278 22.4899 41.444 22.5322 41.6035C22.5745 41.763 22.612 41.9176 22.6445 42.0674C22.6771 41.9176 22.7145 41.763 22.7568 41.6035C22.7992 41.4408 22.848 41.2731 22.9033 41.1006C22.9587 40.9248 23.0205 40.7409 23.0889 40.5488L24.749 35.8613H25.6279Z" fill="white"/>
</g>
<defs>
<clipPath id="clip0_20_77">
<rect width="38" height="43" fill="white"/>
</clipPath>
</defs>
</svg>
