<svg width="70" height="20" viewBox="0 0 70 20" fill="none" xmlns="http://www.w3.org/2000/svg">
<g clip-path="url(#clip0_75_333)">
<rect width="70" height="20" rx="10" fill="#F8FAFC"/>
<path d="M31.75 16.5C31.1361 16.5 30.6219 16.292 30.2073 15.876C29.7928 15.46 29.5848 14.9458 29.5833 14.3333V12.1667H32.8333V13.25H37.1667V11.0833H31.75C31.1361 11.0833 30.6219 10.8753 30.2073 10.4593C29.7928 10.0433 29.5848 9.52911 29.5833 8.91667V5.66667C29.5833 5.05278 29.7913 4.53856 30.2073 4.124C30.6233 3.70944 31.1376 3.50144 31.75 3.5H38.25C38.8639 3.5 39.3788 3.708 39.7948 4.124C40.2108 4.54 40.4181 5.05422 40.4167 5.66667V7.83333H37.1667V6.75H32.8333V8.91667H38.25C38.8639 8.91667 39.3788 9.12467 39.7948 9.54067C40.2108 9.95667 40.4181 10.4709 40.4167 11.0833V14.3333C40.4167 14.9472 40.2087 15.4622 39.7927 15.8782C39.3767 16.2942 38.8624 16.5014 38.25 16.5H31.75ZM45.8333 16.5C45.2194 16.5 44.7052 16.292 44.2907 15.876C43.8761 15.46 43.6681 14.9458 43.6667 14.3333V12.1667H46.9167V13.25H51.25V11.0833H45.8333C45.2194 11.0833 44.7052 10.8753 44.2907 10.4593C43.8761 10.0433 43.6681 9.52911 43.6667 8.91667V5.66667C43.6667 5.05278 43.8747 4.53856 44.2907 4.124C44.7067 3.70944 45.2209 3.50144 45.8333 3.5H52.3333C52.9472 3.5 53.4622 3.708 53.8782 4.124C54.2942 4.54 54.5014 5.05422 54.5 5.66667V7.83333H51.25V6.75H46.9167V8.91667H52.3333C52.9472 8.91667 53.4622 9.12467 53.8782 9.54067C54.2942 9.95667 54.5014 10.4709 54.5 11.0833V14.3333C54.5 14.9472 54.292 15.4622 53.876 15.8782C53.46 16.2942 52.9458 16.5014 52.3333 16.5H45.8333ZM17.6667 16.5C17.0528 16.5 16.5386 16.292 16.124 15.876C15.7094 15.46 15.5014 14.9458 15.5 14.3333V5.66667C15.5 5.05278 15.708 4.53856 16.124 4.124C16.54 3.70944 17.0542 3.50144 17.6667 3.5H24.1667C24.7806 3.5 25.2955 3.708 25.7115 4.124C26.1275 4.54 26.3348 5.05422 26.3333 5.66667V7.83333H23.0833V6.75H18.75V13.25H23.0833V12.1667H26.3333V14.3333C26.3333 14.9472 26.1253 15.4622 25.7093 15.8782C25.2933 16.2942 24.7791 16.5014 24.1667 16.5H17.6667Z" fill="black"/>
</g>
<defs>
<clipPath id="clip0_75_333">
<rect width="70" height="20" rx="10" fill="white"/>
</clipPath>
</defs>
</svg>
