<svg width="70" height="20" viewBox="0 0 70 20" fill="none" xmlns="http://www.w3.org/2000/svg">
<g clip-path="url(#clip0_75_406)">
<rect width="70" height="20" rx="10" fill="#F8FAFC"/>
<path d="M12 16.375V4.625H14.9375V8.54167H18.8542V4.625H21.7917V16.375H18.8542V11.4792H14.9375V16.375H12ZM27.1771 16.375V7.5625H23.75V4.625H33.5417V7.5625H30.1146V16.375H27.1771ZM35.5 16.375V6.58333C35.5 6.02847 35.688 5.56369 36.064 5.189C36.44 4.81431 36.9048 4.62631 37.4583 4.625H46.2708C46.8257 4.625 47.2911 4.813 47.6671 5.189C48.0431 5.565 48.2305 6.02978 48.2292 6.58333V16.375H45.2917V7.5625H43.3333V14.4167H40.3958V7.5625H38.4375V16.375H35.5ZM51.1667 16.375V4.625H54.1042V13.4375H59V16.375H51.1667Z" fill="black"/>
</g>
<defs>
<clipPath id="clip0_75_406">
<rect width="70" height="20" rx="10" fill="white"/>
</clipPath>
</defs>
</svg>
