<svg width="24" height="24" viewBox="0 0 24 24" fill="none" xmlns="http://www.w3.org/2000/svg">
<path d="M1.77002 19.462V18.462H22.23V19.462H1.77002ZM4.61602 17.462C4.15535 17.462 3.77102 17.3077 3.46302 16.999C3.15502 16.6904 3.00069 16.306 3.00002 15.846V6.07704C3.00002 5.61704 3.15435 5.2327 3.46302 4.92404C3.77169 4.61537 4.15569 4.46137 4.61502 4.46204H19.385C19.845 4.46204 20.229 4.61604 20.537 4.92404C20.845 5.23204 20.9994 5.61637 21 6.07704V15.847C21 16.307 20.8457 16.691 20.537 16.999C20.2284 17.307 19.844 17.4614 19.384 17.462H4.61602ZM4.61602 16.462H19.385C19.5384 16.462 19.6794 16.3977 19.808 16.269C19.9367 16.1404 20.0007 15.9994 20 15.846V6.07704C20 5.92371 19.936 5.7827 19.808 5.65404C19.6794 5.52537 19.538 5.46104 19.384 5.46104H4.61602C4.46202 5.46104 4.32069 5.52537 4.19202 5.65404C4.06402 5.78204 4.00002 5.92304 4.00002 6.07704V15.847C4.00002 16.0004 4.06402 16.141 4.19202 16.269C4.32002 16.397 4.46102 16.4614 4.61502 16.462" fill="#F8FAFC"/>
</svg>
