<svg width="91" height="91" viewBox="0 0 91 91" fill="none" xmlns="http://www.w3.org/2000/svg">
<path d="M39.8125 56.875C38.7382 56.875 37.8383 56.511 37.1128 55.783C36.3874 55.055 36.0234 54.1551 36.0208 53.0833V49.2917H41.7083V51.1875H49.2917V47.3958H39.8125C38.7382 47.3958 37.8383 47.0318 37.1128 46.3038C36.3874 45.5758 36.0234 44.6759 36.0208 43.6042V37.9167C36.0208 36.8424 36.3848 35.9425 37.1128 35.217C37.8408 34.4915 38.7407 34.1275 39.8125 34.125H51.1875C52.2618 34.125 53.163 34.489 53.891 35.217C54.619 35.945 54.9817 36.8449 54.9792 37.9167V41.7083H49.2917V39.8125H41.7083V43.6042H51.1875C52.2618 43.6042 53.163 43.9682 53.891 44.6962C54.619 45.4242 54.9817 46.3241 54.9792 47.3958V53.0833C54.9792 54.1576 54.6152 55.0588 53.8872 55.7868C53.1592 56.5148 52.2593 56.8775 51.1875 56.875H39.8125ZM64.4583 56.875C63.384 56.875 62.4841 56.511 61.7587 55.783C61.0332 55.055 60.6692 54.1551 60.6667 53.0833V49.2917H66.3542V51.1875H73.9375V47.3958H64.4583C63.384 47.3958 62.4841 47.0318 61.7587 46.3038C61.0332 45.5758 60.6692 44.6759 60.6667 43.6042V37.9167C60.6667 36.8424 61.0307 35.9425 61.7587 35.217C62.4867 34.4915 63.3866 34.1275 64.4583 34.125H75.8333C76.9076 34.125 77.8088 34.489 78.5368 35.217C79.2648 35.945 79.6275 36.8449 79.625 37.9167V41.7083H73.9375V39.8125H66.3542V43.6042H75.8333C76.9076 43.6042 77.8088 43.9682 78.5368 44.6962C79.2648 45.4242 79.6275 46.3241 79.625 47.3958V53.0833C79.625 54.1576 79.261 55.0588 78.533 55.7868C77.805 56.5148 76.9051 56.8775 75.8333 56.875H64.4583ZM15.1667 56.875C14.0924 56.875 13.1925 56.511 12.467 55.783C11.7415 55.055 11.3775 54.1551 11.375 53.0833V37.9167C11.375 36.8424 11.739 35.9425 12.467 35.217C13.195 34.4915 14.0949 34.1275 15.1667 34.125H26.5417C27.616 34.125 28.5171 34.489 29.2451 35.217C29.9731 35.945 30.3359 36.8449 30.3333 37.9167V41.7083H24.6458V39.8125H17.0625V51.1875H24.6458V49.2917H30.3333V53.0833C30.3333 54.1576 29.9693 55.0588 29.2413 55.7868C28.5133 56.5148 27.6134 56.8775 26.5417 56.875H15.1667Z" fill="#F8FAFC"/>
</svg>
