<svg width="113" height="113" viewBox="0 0 113 113" fill="none" xmlns="http://www.w3.org/2000/svg">
<path d="M0 70.625V42.375H7.0625V51.7917H16.4792V42.375H23.5417V70.625H16.4792V58.8542H7.0625V70.625H0ZM36.4896 70.625V49.4375H28.25V42.375H51.7917V49.4375H43.5521V70.625H36.4896ZM56.5 70.625V47.0833C56.5 45.7493 56.952 44.6319 57.856 43.731C58.76 42.8301 59.8774 42.3781 61.2083 42.375H82.3958C83.7299 42.375 84.8489 42.827 85.7529 43.731C86.6569 44.635 87.1073 45.7524 87.1042 47.0833V70.625H80.0417V49.4375H75.3333V65.9167H68.2708V49.4375H63.5625V70.625H56.5ZM94.1667 70.625V42.375H101.229V63.5625H113V70.625H94.1667Z" fill="#F8FAFC"/>
</svg>
