<svg width="91" height="91" viewBox="0 0 91 91" fill="none" xmlns="http://www.w3.org/2000/svg">
<path d="M22.75 11.375C19.7332 11.375 16.8399 12.5734 14.7067 14.7067C12.5734 16.8399 11.375 19.7332 11.375 22.75V68.25C11.375 71.2668 12.5734 74.1601 14.7067 76.2933C16.8399 78.4266 19.7332 79.625 22.75 79.625H68.25C71.2668 79.625 74.1601 78.4266 76.2933 76.2933C78.4266 74.1601 79.625 71.2668 79.625 68.25V22.75C79.625 19.7332 78.4266 16.8399 76.2933 14.7067C74.1601 12.5734 71.2668 11.375 68.25 11.375H22.75ZM50.5581 60.8752C53.2881 63.0744 56.013 64.1588 58.7329 64.1285C60.4012 64.1285 61.6803 63.8226 62.5701 63.2109C62.9844 62.9419 63.3215 62.5698 63.5482 62.131C63.7749 61.6922 63.8834 61.2019 63.863 60.7084C63.8688 60.1701 63.7563 59.6371 63.5336 59.1471C63.3108 58.657 62.9832 58.2218 62.5739 57.8722C61.6841 57.0962 60.0006 56.3176 57.5234 55.5365C54.5482 54.6771 52.2542 53.5649 50.6415 52.1999C49.0591 50.8349 48.2528 48.9302 48.2224 46.4858C48.2224 44.178 49.2234 42.2455 51.2254 40.6884C53.1718 39.1313 55.6617 38.3527 58.695 38.3527C62.9214 38.3527 66.3125 39.3815 68.868 41.4391L65.9485 45.9853C64.8972 45.168 63.6912 44.5721 62.4033 44.2336C61.2459 43.8458 60.0366 43.6349 58.8163 43.608C57.3755 43.608 56.2216 43.8721 55.3545 44.4004C54.4951 44.9313 54.0654 45.6264 54.0654 46.4858C54.0654 47.4312 54.5924 48.2376 55.6465 48.9049C56.7082 49.547 58.5155 50.256 61.0686 51.032C64.155 51.9496 66.3516 53.1731 67.6585 54.7024C68.9654 56.2317 69.6188 58.1781 69.6188 60.5415C69.6188 62.9606 68.6873 65.046 66.8243 66.7978C64.9892 68.5217 62.3198 69.4254 58.8163 69.5088C54.2284 69.5088 50.3913 68.1325 47.3048 65.3797L50.5581 60.8752ZM29.5902 63.2943C30.4799 63.8504 31.5505 64.1285 32.8017 64.1285C34.1086 64.1285 35.193 63.7531 36.055 63.0023C36.9144 62.2238 37.3454 60.8752 37.3479 58.9566V38.8532H42.9785V60.041C42.8951 63.3221 41.9497 65.6856 40.1424 67.1315C39.1534 67.9675 38.0037 68.5921 36.764 68.9666C35.6144 69.3167 34.4204 69.4993 33.2188 69.5088C31.1334 69.5088 29.2843 69.1474 27.6716 68.4244C25.9476 67.6484 24.5017 66.272 23.3339 64.2953L27.2545 61.0838C27.9749 62.0569 28.7535 62.7938 29.5902 63.2943Z" fill="#F8FAFC"/>
</svg>
