<svg width="150" height="150" viewBox="0 0 150 150" fill="none" xmlns="http://www.w3.org/2000/svg">
<path d="M12.5 75C12.5 109.519 40.4813 137.5 75 137.5C109.519 137.5 137.5 109.519 137.5 75C137.5 40.4813 109.519 12.5 75 12.5C40.4813 12.5 12.5 40.4813 12.5 75ZM125 75C125 88.2608 119.732 100.979 110.355 110.355C100.979 119.732 88.2608 125 75 125C61.7392 125 49.0215 119.732 39.6447 110.355C30.2678 100.979 25 88.2608 25 75C25 61.7392 30.2678 49.0215 39.6447 39.6447C49.0215 30.2678 61.7392 25 75 25C88.2608 25 100.979 30.2678 110.355 39.6447C119.732 49.0215 125 61.7392 125 75ZM112.5 75C112.5 84.9456 108.549 94.4839 101.517 101.517C94.4839 108.549 84.9456 112.5 75 112.5V37.5C84.9456 37.5 94.4839 41.4509 101.517 48.4835C108.549 55.5161 112.5 65.0544 112.5 75Z" fill="#F8FAFC"/>
</svg>
