<svg width="227" height="227" viewBox="0 0 227 227" fill="none" xmlns="http://www.w3.org/2000/svg">
<path d="M28.375 113.5H37.8333M113.5 28.375V37.8333M189.167 113.5H198.625M52.9667 52.9667L59.5875 59.5875M174.033 52.9667L167.413 59.5875M91.7458 160.792H135.254M85.125 151.333C77.1844 145.378 71.319 137.075 68.3595 127.601C65.3999 118.127 65.4964 107.961 68.6352 98.5451C71.774 89.1287 77.7959 80.9387 85.8481 75.135C93.9002 69.3313 103.574 66.2083 113.5 66.2083C123.426 66.2083 133.1 69.3313 141.152 75.135C149.204 80.9387 155.226 89.1287 158.365 98.5451C161.504 107.961 161.6 118.127 158.641 127.601C155.681 137.075 149.816 145.378 141.875 151.333C138.182 154.989 135.402 159.462 133.759 164.392C132.115 169.321 131.656 174.568 132.417 179.708C132.417 184.725 130.424 189.537 126.876 193.084C123.329 196.632 118.517 198.625 113.5 198.625C108.483 198.625 103.671 196.632 100.124 193.084C96.5763 189.537 94.5833 184.725 94.5833 179.708C95.3443 174.568 94.8846 169.321 93.2415 164.392C91.5983 159.462 88.8178 154.989 85.125 151.333Z" stroke="#F8FAFC" stroke-width="2" stroke-linecap="round" stroke-linejoin="round"/>
</svg>
